<?xml version="1.0" encoding="UTF-8"?>
<svg id="Layer_2" xmlns="http://www.w3.org/2000/svg" version="1.1" viewBox="0 0 10 10">
  <!-- Generator: Adobe Illustrator 30.0.0, SVG Export Plug-In . SVG Version: 2.1.1 Build 123)  -->
  <path d="M10,5c0-.7-.4-1.3-1-1.7.2-.6,0-1.4-.5-1.9-.5-.5-1.2-.7-1.9-.5C6.3.4,5.7,0,5,0s-1.3.4-1.7,1c-.6-.2-1.4,0-1.9.5s-.7,1.2-.5,1.9c-.6.3-1,.9-1,1.7s.4,1.3,1,1.7c-.2.6,0,1.4.5,1.9.5.5,1.2.7,1.9.5.3.6.9,1,1.7,1s1.3-.4,1.7-1c.6.2,1.4,0,1.9-.5.5-.5.7-1.2.5-1.9.6-.3,1-.9,1-1.7ZM5,6.9c-1,0-1.9-.8-1.9-1.9s.8-1.9,1.9-1.9,1.9.8,1.9,1.9-.8,1.9-1.9,1.9Z" fill="#fff"/>
</svg>