<?xml version="1.0" encoding="UTF-8"?>
<svg id="Layer_2" xmlns="http://www.w3.org/2000/svg" version="1.1" viewBox="0 0 10 10">
  <!-- Generator: Adobe Illustrator 30.0.0, SVG Export Plug-In . SVG Version: 2.1.1 Build 123)  -->
  <g id="Layer_1-2">
    <g>
      <path d="M5,9.9c0,0,.2,0,.2-.2,0-1.4,1.2-3.1,2.2-3.9.9-.8,1.7-1.7,1.7-2.9s-1-2.1-2.1-2.1-1.3.3-1.7.9c0,0-.2.1-.3.1h0c0,0-.2,0-.3-.1-.4-.5-1-.9-1.7-.9C1.9.8.9,1.8.9,3s.8,2.1,1.7,2.9c.9.8,2.1,2.5,2.2,3.9,0,0,0,.2.2.2h0Z" fill="#fff"/>
      <line x1="5" y1=".4" x2="5" y2=".4" fill="#fff" stroke="#fff" stroke-linecap="round" stroke-miterlimit="10" stroke-width=".8"/>
    </g>
  </g>
</svg>